P1
# Sin comentario
5 7
0 1 1 1 1 
1 1 0 1 1 
1 0 1 1 1 
1 0 1 0 1 
1 1 1 0 1 
1 1 1 0 1 
1 1 1 1 1 
